<svg width="28" height="28" viewBox="0 0 28 28" fill="none" xmlns="http://www.w3.org/2000/svg">
<path d="M13.8843 10.8255V7.01595H9.91903V4.47627H13.8843V0.666748H16.5279V4.47627H20.4932V7.01595H16.5279V10.8255H13.8843ZM8.59726 27.3334C7.87029 27.3334 7.24818 27.0849 6.73093 26.588C6.21279 26.0902 5.95373 25.4921 5.95373 24.7937C5.95373 24.0953 6.21279 23.4972 6.73093 22.9994C7.24818 22.5025 7.87029 22.2541 8.59726 22.2541C9.32424 22.2541 9.94635 22.5025 10.4636 22.9994C10.9817 23.4972 11.2408 24.0953 11.2408 24.7937C11.2408 25.4921 10.9817 26.0902 10.4636 26.588C9.94635 27.0849 9.32424 27.3334 8.59726 27.3334ZM21.8149 27.3334C21.088 27.3334 20.4659 27.0849 19.9486 26.588C19.4305 26.0902 19.1714 25.4921 19.1714 24.7937C19.1714 24.0953 19.4305 23.4972 19.9486 22.9994C20.4659 22.5025 21.088 22.2541 21.8149 22.2541C22.5419 22.2541 23.1645 22.5025 23.6826 22.9994C24.1999 23.4972 24.4585 24.0953 24.4585 24.7937C24.4585 25.4921 24.1999 26.0902 23.6826 26.588C23.1645 27.0849 22.5419 27.3334 21.8149 27.3334ZM8.59726 20.9842C7.60594 20.9842 6.84592 20.566 6.31721 19.7296C5.78851 18.894 5.77749 18.0636 6.28417 17.2382L8.06856 14.1271L3.31019 4.47627H0.666656V1.93659H4.99545L10.613 13.3652H19.8984L25.0202 4.47627L27.3333 5.68262L22.2115 14.5715C21.9691 14.9948 21.6497 15.3228 21.2532 15.5556C20.8567 15.7884 20.4051 15.9048 19.8984 15.9048H10.0512L8.59726 18.4445H24.4585V20.9842H8.59726Z" fill="white"/>
</svg>
